<?xml version="1.0" encoding="UTF-8" standalone="no"?>
<!DOCTYPE svg PUBLIC "-//W3C//DTD SVG 1.1//EN"
 "http://www.w3.org/Graphics/SVG/1.1/DTD/svg11.dtd">
<!-- Generated by graphviz version 14.1.4 (20260321.0153)
 -->
<!-- Title: matryoshka_solution Pages: 1 -->
<svg width="436pt" height="588pt"
 viewBox="0.00 0.00 436.00 588.00" xmlns="http://www.w3.org/2000/svg" xmlns:xlink="http://www.w3.org/1999/xlink">
<g id="graph0" class="graph" transform="scale(1 1) rotate(0) translate(4 583.68)">
<title>matryoshka_solution</title>
<text xml:space="preserve" text-anchor="middle" x="213.93" y="-562.38" font-family="Helvetica,sans-Serif" font-size="14.00" fill="#607d8b">Same system with Matryoshka&#45;Io</text>
<!-- client -->
<g id="node1" class="node">
<title>client</title>
<ellipse fill="#eceff1" stroke="#607d8b" cx="145.93" cy="-532.13" rx="61.73" ry="22.3"/>
<text xml:space="preserve" text-anchor="middle" x="145.93" y="-527.86" font-family="Helvetica,sans-Serif" font-size="12.00" fill="#2f3b42">TCP client</text>
</g>
<!-- io -->
<g id="node2" class="node">
<title>io</title>
<ellipse fill="#e0e6ea" stroke="#607d8b" cx="145.93" cy="-451.54" rx="59.61" ry="22.3"/>
<text xml:space="preserve" text-anchor="middle" x="145.93" y="-447.27" font-family="Helvetica,sans-Serif" font-size="12.00" fill="#2f3b42">Zig std.Io</text>
</g>
<!-- client&#45;&gt;io -->
<g id="edge1" class="edge">
<title>client&#45;&gt;io</title>
<path fill="none" stroke="#78909c" d="M145.93,-509.68C145.93,-509.68 145.93,-485.66 145.93,-485.66"/>
<polygon fill="#78909c" stroke="#78909c" points="149.43,-485.66 145.93,-475.66 142.43,-485.66 149.43,-485.66"/>
</g>
<!-- acceptor -->
<g id="node3" class="node">
<title>acceptor</title>
<ellipse fill="#eceff1" stroke="#607d8b" cx="145.93" cy="-360.88" rx="81.35" ry="32.37"/>
<text xml:space="preserve" text-anchor="middle" x="145.93" y="-363.73" font-family="Helvetica,sans-Serif" font-size="12.00" fill="#2f3b42">Acceptor</text>
<text xml:space="preserve" text-anchor="middle" x="145.93" y="-349.48" font-family="Helvetica,sans-Serif" font-size="12.00" fill="#2f3b42">builds Request</text>
</g>
<!-- io&#45;&gt;acceptor -->
<g id="edge2" class="edge">
<title>io&#45;&gt;acceptor</title>
<path fill="none" stroke="#78909c" d="M145.93,-429.13C145.93,-429.13 145.93,-405.16 145.93,-405.16"/>
<polygon fill="#78909c" stroke="#78909c" points="149.43,-405.16 145.93,-395.16 142.43,-405.16 149.43,-405.16"/>
</g>
<!-- mailbox1 -->
<g id="node6" class="node">
<title>mailbox1</title>
<polygon fill="#dbe4ec" stroke="#5b7a94" points="143.85,-292.51 0,-292.51 0,-267.31 143.85,-267.31 143.85,-292.51"/>
<text xml:space="preserve" text-anchor="middle" x="71.92" y="-276.78" font-family="Helvetica,sans-Serif" font-size="10.00" fill="#243642">Mailbox (fan&#45;in / fan&#45;out)</text>
</g>
<!-- acceptor&#45;&gt;mailbox1 -->
<g id="edge3" class="edge">
<title>acceptor&#45;&gt;mailbox1</title>
<path fill="none" stroke="#78909c" d="M104.21,-333.01C104.21,-333.01 104.21,-304.13 104.21,-304.13"/>
<polygon fill="#78909c" stroke="#78909c" points="107.71,-304.13 104.21,-294.13 100.71,-304.13 107.71,-304.13"/>
<text xml:space="preserve" text-anchor="middle" x="84.34" y="-309.07" font-family="Helvetica,sans-Serif" font-size="10.00" fill="#607d8b">Request</text>
</g>
<!-- polynode -->
<g id="node8" class="node">
<title>polynode</title>
<polygon fill="#dbe4ec" stroke="#5b7a94" points="386.6,-375.79 287.19,-375.79 287.19,-379.1 277.25,-379.1 277.25,-345.97 386.6,-345.97 386.6,-375.79"/>
<polyline fill="none" stroke="#5b7a94" points="277.25,-375.79 287.19,-375.79"/>
<text xml:space="preserve" text-anchor="middle" x="331.93" y="-364.13" font-family="Helvetica,sans-Serif" font-size="10.00" fill="#243642">PolyNode</text>
<text xml:space="preserve" text-anchor="middle" x="331.93" y="-351.38" font-family="Helvetica,sans-Serif" font-size="10.00" fill="#243642">identifies Request</text>
</g>
<!-- acceptor&#45;&gt;polynode -->
<g id="edge7" class="edge">
<title>acceptor&#45;&gt;polynode</title>
<path fill="none" stroke="#78909c" stroke-dasharray="1,5" d="M227.51,-361C244.2,-361 261.39,-361 276.88,-361"/>
</g>
<!-- session -->
<g id="node4" class="node">
<title>session</title>
<ellipse fill="#eceff1" stroke="#607d8b" cx="71.92" cy="-198.93" rx="53.25" ry="32.37"/>
<text xml:space="preserve" text-anchor="middle" x="71.92" y="-201.78" font-family="Helvetica,sans-Serif" font-size="12.00" fill="#2f3b42">Session</text>
<text xml:space="preserve" text-anchor="middle" x="71.92" y="-187.53" font-family="Helvetica,sans-Serif" font-size="12.00" fill="#2f3b42">handles</text>
</g>
<!-- mailbox2 -->
<g id="node7" class="node">
<title>mailbox2</title>
<polygon fill="#dbe4ec" stroke="#5b7a94" points="143.85,-128.25 0,-128.25 0,-103.05 143.85,-103.05 143.85,-128.25"/>
<text xml:space="preserve" text-anchor="middle" x="71.92" y="-112.53" font-family="Helvetica,sans-Serif" font-size="10.00" fill="#243642">Mailbox (fan&#45;in / fan&#45;out)</text>
</g>
<!-- session&#45;&gt;mailbox2 -->
<g id="edge5" class="edge">
<title>session&#45;&gt;mailbox2</title>
<path fill="none" stroke="#78909c" d="M71.92,-166.5C71.92,-166.5 71.92,-139.87 71.92,-139.87"/>
<polygon fill="#78909c" stroke="#78909c" points="75.43,-139.87 71.93,-129.87 68.43,-139.87 75.43,-139.87"/>
<text xml:space="preserve" text-anchor="middle" x="52.05" y="-156.44" font-family="Helvetica,sans-Serif" font-size="10.00" fill="#607d8b">Request</text>
</g>
<!-- journal -->
<g id="node5" class="node">
<title>journal</title>
<ellipse fill="#eceff1" stroke="#607d8b" cx="72.92" cy="-32.37" rx="49.53" ry="32.37"/>
<text xml:space="preserve" text-anchor="middle" x="72.92" y="-35.22" font-family="Helvetica,sans-Serif" font-size="12.00" fill="#2f3b42">Journal</text>
<text xml:space="preserve" text-anchor="middle" x="72.92" y="-20.97" font-family="Helvetica,sans-Serif" font-size="12.00" fill="#2f3b42">writes</text>
</g>
<!-- pool -->
<g id="node9" class="node">
<title>pool</title>
<path fill="#dbe4ec" stroke="#5b7a94" d="M266.35,-49.99C266.35,-52.15 245.54,-53.9 219.93,-53.9 194.31,-53.9 173.5,-52.15 173.5,-49.99 173.5,-49.99 173.5,-14.75 173.5,-14.75 173.5,-12.59 194.31,-10.84 219.93,-10.84 245.54,-10.84 266.35,-12.59 266.35,-14.75 266.35,-14.75 266.35,-49.99 266.35,-49.99"/>
<path fill="none" stroke="#5b7a94" d="M266.35,-49.99C266.35,-47.83 245.54,-46.07 219.93,-46.07 194.31,-46.07 173.5,-47.83 173.5,-49.99"/>
<text xml:space="preserve" text-anchor="middle" x="219.93" y="-35.42" font-family="Helvetica,sans-Serif" font-size="11.00" fill="#243642">Pool</text>
<text xml:space="preserve" text-anchor="middle" x="219.93" y="-21.92" font-family="Helvetica,sans-Serif" font-size="11.00" fill="#243642">reuses items</text>
</g>
<!-- journal&#45;&gt;pool -->
<g id="edge9" class="edge">
<title>journal&#45;&gt;pool</title>
<path fill="none" stroke="#78909c" stroke-dasharray="5,2" d="M122.69,-32C122.69,-32 161.67,-32 161.67,-32"/>
<polygon fill="#78909c" stroke="#78909c" points="161.67,-35.5 171.67,-32 161.67,-28.5 161.67,-35.5"/>
<text xml:space="preserve" text-anchor="middle" x="150.81" y="-22.5" font-family="Helvetica,sans-Serif" font-size="10.00" fill="#607d8b">returns</text>
</g>
<!-- mailbox1&#45;&gt;session -->
<g id="edge4" class="edge">
<title>mailbox1&#45;&gt;session</title>
<path fill="none" stroke="#78909c" d="M71.92,-266.9C71.92,-266.9 71.92,-242.99 71.92,-242.99"/>
<polygon fill="#78909c" stroke="#78909c" points="75.43,-242.99 71.93,-232.99 68.43,-242.99 75.43,-242.99"/>
<text xml:space="preserve" text-anchor="middle" x="52.05" y="-245.44" font-family="Helvetica,sans-Serif" font-size="10.00" fill="#607d8b">Request</text>
</g>
<!-- mailbox2&#45;&gt;journal -->
<g id="edge6" class="edge">
<title>mailbox2&#45;&gt;journal</title>
<path fill="none" stroke="#78909c" d="M72.92,-102.64C72.92,-102.64 72.92,-76.56 72.92,-76.56"/>
<polygon fill="#78909c" stroke="#78909c" points="76.43,-76.56 72.93,-66.56 69.43,-76.56 76.43,-76.56"/>
<text xml:space="preserve" text-anchor="middle" x="53.05" y="-92.85" font-family="Helvetica,sans-Serif" font-size="10.00" fill="#607d8b">Request</text>
</g>
<!-- pool&#45;&gt;acceptor -->
<g id="edge8" class="edge">
<title>pool&#45;&gt;acceptor</title>
<path fill="none" stroke="#78909c" d="M200.39,-54.18C200.39,-54.18 200.39,-325.14 200.39,-325.14"/>
<polygon fill="#78909c" stroke="#78909c" points="196.89,-325.14 200.39,-335.14 203.89,-325.14 196.89,-325.14"/>
<text xml:space="preserve" text-anchor="middle" x="184.64" y="-192.91" font-family="Helvetica,sans-Serif" font-size="10.00" fill="#607d8b">leases</text>
</g>
<!-- hooks -->
<g id="node10" class="node">
<title>hooks</title>
<path fill="#f0ece0" stroke="#8a7a4e" d="M417.91,-130.56C417.91,-130.56 305.94,-130.56 305.94,-130.56 300.97,-130.56 296,-125.59 296,-120.62 296,-120.62 296,-110.68 296,-110.68 296,-105.71 300.97,-100.74 305.94,-100.74 305.94,-100.74 417.91,-100.74 417.91,-100.74 422.88,-100.74 427.85,-105.71 427.85,-110.68 427.85,-110.68 427.85,-120.62 427.85,-120.62 427.85,-125.59 422.88,-130.56 417.91,-130.56"/>
<text xml:space="preserve" text-anchor="middle" x="361.93" y="-118.9" font-family="Helvetica,sans-Serif" font-size="10.00" fill="#4a3f22">Your hooks</text>
<text xml:space="preserve" text-anchor="middle" x="361.93" y="-106.15" font-family="Helvetica,sans-Serif" font-size="10.00" fill="#4a3f22">create / reset / destroy</text>
</g>
<!-- hooks&#45;&gt;pool -->
<g id="edge10" class="edge">
<title>hooks&#45;&gt;pool</title>
<path fill="none" stroke="#8a7a4e" d="M295.63,-116C270.04,-116 246.81,-116 246.81,-116 246.81,-116 246.81,-65.42 246.81,-65.42"/>
<polygon fill="#8a7a4e" stroke="#8a7a4e" points="250.31,-65.42 246.81,-55.42 243.31,-65.42 250.31,-65.42"/>
<text xml:space="preserve" text-anchor="middle" x="209.31" y="-118.37" font-family="Helvetica,sans-Serif" font-size="10.00" fill="#8a7a4e">manages types</text>
</g>
</g>
</svg>
