<?xml version="1.0" encoding="UTF-8" standalone="no"?>
<!DOCTYPE svg PUBLIC "-//W3C//DTD SVG 1.1//EN"
 "http://www.w3.org/Graphics/SVG/1.1/DTD/svg11.dtd">
<!-- Generated by graphviz version 14.1.4 (20260321.0153)
 -->
<!-- Title: real_system Pages: 1 -->
<svg width="561pt" height="477pt"
 viewBox="0.00 0.00 561.00 477.00" xmlns="http://www.w3.org/2000/svg" xmlns:xlink="http://www.w3.org/1999/xlink">
<g id="graph0" class="graph" transform="scale(1 1) rotate(0) translate(4 472.66)">
<title>real_system</title>
<text xml:space="preserve" text-anchor="middle" x="276.63" y="-451.36" font-family="Helvetica,sans-Serif" font-size="14.00" fill="#607d8b">A real system: TCP request service</text>
<!-- client -->
<g id="node1" class="node">
<title>client</title>
<ellipse fill="#eceff1" stroke="#607d8b" cx="81.35" cy="-421.11" rx="61.73" ry="22.3"/>
<text xml:space="preserve" text-anchor="middle" x="81.35" y="-416.84" font-family="Helvetica,sans-Serif" font-size="12.00" fill="#2f3b42">TCP client</text>
</g>
<!-- io -->
<g id="node2" class="node">
<title>io</title>
<ellipse fill="#e0e6ea" stroke="#607d8b" cx="81.35" cy="-336.52" rx="59.61" ry="22.3"/>
<text xml:space="preserve" text-anchor="middle" x="81.35" y="-332.25" font-family="Helvetica,sans-Serif" font-size="12.00" fill="#2f3b42">Zig std.Io</text>
</g>
<!-- client&#45;&gt;io -->
<g id="edge1" class="edge">
<title>client&#45;&gt;io</title>
<path fill="none" stroke="#78909c" d="M81.35,-398.44C81.35,-398.44 81.35,-370.77 81.35,-370.77"/>
<polygon fill="#78909c" stroke="#78909c" points="84.85,-370.77 81.35,-360.77 77.85,-370.77 84.85,-370.77"/>
</g>
<!-- acceptor -->
<g id="node3" class="node">
<title>acceptor</title>
<ellipse fill="#eceff1" stroke="#607d8b" cx="81.35" cy="-241.86" rx="81.35" ry="32.37"/>
<text xml:space="preserve" text-anchor="middle" x="81.35" y="-244.71" font-family="Helvetica,sans-Serif" font-size="12.00" fill="#2f3b42">Acceptor</text>
<text xml:space="preserve" text-anchor="middle" x="81.35" y="-230.46" font-family="Helvetica,sans-Serif" font-size="12.00" fill="#2f3b42">builds Request</text>
</g>
<!-- io&#45;&gt;acceptor -->
<g id="edge2" class="edge">
<title>io&#45;&gt;acceptor</title>
<path fill="none" stroke="#78909c" d="M81.35,-314.09C81.35,-314.09 81.35,-286.04 81.35,-286.04"/>
<polygon fill="#78909c" stroke="#78909c" points="84.85,-286.04 81.35,-276.04 77.85,-286.04 84.85,-286.04"/>
</g>
<!-- session -->
<g id="node4" class="node">
<title>session</title>
<ellipse fill="#eceff1" stroke="#607d8b" cx="81.35" cy="-137.11" rx="53.25" ry="32.37"/>
<text xml:space="preserve" text-anchor="middle" x="81.35" y="-139.96" font-family="Helvetica,sans-Serif" font-size="12.00" fill="#2f3b42">Session</text>
<text xml:space="preserve" text-anchor="middle" x="81.35" y="-125.71" font-family="Helvetica,sans-Serif" font-size="12.00" fill="#2f3b42">handles</text>
</g>
<!-- acceptor&#45;&gt;session -->
<g id="edge3" class="edge">
<title>acceptor&#45;&gt;session</title>
<path fill="none" stroke="#78909c" d="M81.35,-209C81.35,-209 81.35,-181.36 81.35,-181.36"/>
<polygon fill="#78909c" stroke="#78909c" points="84.85,-181.36 81.35,-171.36 77.85,-181.36 84.85,-181.36"/>
<text xml:space="preserve" text-anchor="middle" x="61.48" y="-198.43" font-family="Helvetica,sans-Serif" font-size="10.00" fill="#607d8b">Request</text>
</g>
<!-- q1 -->
<g id="node6" class="node">
<title>q1</title>
<polygon fill="#f3e0da" stroke="#b0644a" points="547.25,-259.86 407.45,-259.86 407.45,-223.86 553.25,-223.86 553.25,-253.86 547.25,-259.86"/>
<polyline fill="none" stroke="#b0644a" points="547.25,-259.86 547.25,-253.86"/>
<polyline fill="none" stroke="#b0644a" points="553.25,-253.86 547.25,-253.86"/>
<text xml:space="preserve" text-anchor="middle" x="480.35" y="-238.73" font-family="Helvetica,sans-Serif" font-size="10.00" fill="#6e3a29">Who owns the Request?</text>
</g>
<!-- acceptor&#45;&gt;q1 -->
<g id="edge5" class="edge">
<title>acceptor&#45;&gt;q1</title>
<path fill="none" stroke="#b0644a" stroke-dasharray="1,5" d="M134.75,-217C243.47,-217 480.35,-217 480.35,-217 480.35,-217 480.35,-219.81 480.35,-223.53"/>
</g>
<!-- q2 -->
<g id="node7" class="node">
<title>q2</title>
<polygon fill="#f3e0da" stroke="#b0644a" points="351.5,-259.86 213.2,-259.86 213.2,-223.86 357.5,-223.86 357.5,-253.86 351.5,-259.86"/>
<polyline fill="none" stroke="#b0644a" points="351.5,-259.86 351.5,-253.86"/>
<polyline fill="none" stroke="#b0644a" points="357.5,-253.86 351.5,-253.86"/>
<text xml:space="preserve" text-anchor="middle" x="285.35" y="-238.73" font-family="Helvetica,sans-Serif" font-size="10.00" fill="#6e3a29">Allocate every request?</text>
</g>
<!-- acceptor&#45;&gt;q2 -->
<g id="edge6" class="edge">
<title>acceptor&#45;&gt;q2</title>
<path fill="none" stroke="#b0644a" stroke-dasharray="1,5" d="M163.15,-242C179.56,-242 196.69,-242 212.76,-242"/>
</g>
<!-- journal -->
<g id="node5" class="node">
<title>journal</title>
<ellipse fill="#eceff1" stroke="#607d8b" cx="81.35" cy="-32.37" rx="49.53" ry="32.37"/>
<text xml:space="preserve" text-anchor="middle" x="81.35" y="-35.22" font-family="Helvetica,sans-Serif" font-size="12.00" fill="#2f3b42">Journal</text>
<text xml:space="preserve" text-anchor="middle" x="81.35" y="-20.97" font-family="Helvetica,sans-Serif" font-size="12.00" fill="#2f3b42">writes</text>
</g>
<!-- session&#45;&gt;journal -->
<g id="edge4" class="edge">
<title>session&#45;&gt;journal</title>
<path fill="none" stroke="#78909c" d="M81.35,-104.26C81.35,-104.26 81.35,-76.62 81.35,-76.62"/>
<polygon fill="#78909c" stroke="#78909c" points="84.85,-76.62 81.35,-66.62 77.85,-76.62 84.85,-76.62"/>
<text xml:space="preserve" text-anchor="middle" x="61.48" y="-93.69" font-family="Helvetica,sans-Serif" font-size="10.00" fill="#607d8b">Request</text>
</g>
<!-- q3 -->
<g id="node8" class="node">
<title>q3</title>
<polygon fill="#f3e0da" stroke="#b0644a" points="356.38,-155.11 184.33,-155.11 184.33,-119.11 362.38,-119.11 362.38,-149.11 356.38,-155.11"/>
<polyline fill="none" stroke="#b0644a" points="356.38,-155.11 356.38,-149.11"/>
<polyline fill="none" stroke="#b0644a" points="362.38,-149.11 356.38,-149.11"/>
<text xml:space="preserve" text-anchor="middle" x="273.35" y="-133.99" font-family="Helvetica,sans-Serif" font-size="10.00" fill="#6e3a29">How do these exchange work?</text>
</g>
<!-- session&#45;&gt;q3 -->
<g id="edge7" class="edge">
<title>session&#45;&gt;q3</title>
<path fill="none" stroke="#b0644a" stroke-dasharray="1,5" d="M135.09,-137C150.29,-137 167.25,-137 183.95,-137"/>
</g>
</g>
</svg>
